<svg width="137" height="23" viewBox="0 0 137 23" fill="none" xmlns="http://www.w3.org/2000/svg">
<g filter="url(#filter0_d_1_202)">
<path d="M9.72603 1.35757C9.98956 0.751798 10.5873 0.36 11.2479 0.36C11.9106 0.36 12.5099 0.754321 12.7721 1.36301L17.6501 12.6863C18.0237 13.5536 17.3877 14.52 16.4434 14.52C15.9092 14.52 15.4282 14.1966 15.2267 13.7019L14.9 12.9C14.5009 11.9204 13.5485 11.28 12.4907 11.28H9.84184C8.79066 11.28 7.84623 11.9223 7.46 12.9L7.13951 13.7113C6.94669 14.1993 6.4752 14.52 5.95043 14.52C5.02958 14.52 4.41071 13.5759 4.77806 12.7315L9.72603 1.35757ZM11.1671 9.12C12.2267 9.12 12.9588 8.06006 12.5838 7.06911C12.0916 5.76858 10.2538 5.76302 9.75375 7.06053C9.3713 8.05284 10.1037 9.12 11.1671 9.12Z" fill="#647B64"/>
<path d="M18.6577 2.03919C18.4123 1.19982 19.0417 0.36 19.9162 0.36C20.5117 0.36 21.0324 0.761307 21.1842 1.33717L23.6615 10.7403C23.6646 10.7519 23.6751 10.76 23.6871 10.76C23.6987 10.76 23.709 10.7524 23.7124 10.7412L26.4542 1.60173C26.6753 0.864721 27.3537 0.36 28.1231 0.36C28.896 0.36 29.5765 0.869134 29.7947 1.61059L32.4811 10.741C32.4844 10.7523 32.4948 10.76 32.5065 10.76C32.5184 10.76 32.5289 10.752 32.532 10.7405L35.0725 1.30414C35.2225 0.747099 35.7276 0.36 36.3045 0.36C37.1554 0.36 37.7678 1.17714 37.529 1.99384L34.2124 13.3377C34.0075 14.0384 33.365 14.52 32.6349 14.52C31.9161 14.52 31.2807 14.0529 31.0662 13.3669L28.1127 3.91909C28.1091 3.90773 28.0986 3.9 28.0867 3.9C28.0748 3.9 28.0643 3.90773 28.0608 3.91909L25.1072 13.3669C24.8927 14.0529 24.2573 14.52 23.5385 14.52C22.8085 14.52 22.1659 14.0384 21.961 13.3377L18.6577 2.03919Z" fill="#647B64"/>
<path d="M39.6848 3.36C39.6848 1.70315 41.028 0.36 42.6848 0.36H47.9648C48.5724 0.36 49.0648 0.852487 49.0648 1.46C49.0648 2.06751 48.5724 2.56 47.9648 2.56H44.0048C43.0107 2.56 42.2048 3.36589 42.2048 4.36C42.2048 5.35411 43.0107 6.16 44.0048 6.16H47.6448C48.2303 6.16 48.7048 6.63458 48.7048 7.22C48.7048 7.80542 48.2303 8.28 47.6448 8.28H44.2048C43.1003 8.28 42.2048 9.17543 42.2048 10.28C42.2048 11.3846 43.1003 12.28 44.2048 12.28H48.3048C48.9234 12.28 49.4248 12.7814 49.4248 13.4C49.4248 14.0186 48.9234 14.52 48.3048 14.52H42.6848C41.028 14.52 39.6848 13.1769 39.6848 11.52V3.36Z" fill="#647B64"/>
<path d="M60.0078 2.33671C59.5407 2.84939 58.6953 2.81428 58.073 2.50808C58.0398 2.49176 58.0061 2.47574 57.9719 2.46C57.4919 2.22 57.0052 2.1 56.5119 2.1C56.2185 2.1 55.9252 2.14 55.6319 2.22C55.3385 2.28667 55.0719 2.4 54.8319 2.56C54.5919 2.70667 54.3919 2.90667 54.2319 3.16C54.0852 3.4 54.0119 3.69333 54.0119 4.04C54.0119 4.36 54.0785 4.63333 54.2119 4.86C54.3452 5.08667 54.5252 5.28 54.7519 5.44C54.9919 5.6 55.2785 5.74 55.6119 5.86C55.9452 5.98 56.3119 6.1 56.7119 6.22C57.1652 6.36667 57.6319 6.53333 58.1119 6.72C58.6052 6.90667 59.0519 7.15333 59.4519 7.46C59.8652 7.76667 60.1985 8.15333 60.4519 8.62C60.7185 9.08667 60.8519 9.66667 60.8519 10.36C60.8519 11.12 60.7119 11.7867 60.4319 12.36C60.1519 12.92 59.7785 13.3867 59.3119 13.76C58.8452 14.1333 58.2985 14.4133 57.6719 14.6C57.0452 14.7867 56.3852 14.88 55.6919 14.88C54.7719 14.88 53.8719 14.7133 52.9919 14.38C52.4903 14.1824 52.0407 13.9329 51.6431 13.6313C51.1421 13.2514 51.1923 12.5236 51.652 12.0946C52.1721 11.6091 53.004 11.7087 53.6036 12.0916C53.7326 12.1739 53.8687 12.2501 54.0119 12.32C54.5985 12.6 55.1719 12.74 55.7319 12.74C56.0252 12.74 56.3252 12.7067 56.6319 12.64C56.9385 12.56 57.2119 12.4333 57.4519 12.26C57.7052 12.0867 57.9052 11.8733 58.0519 11.62C58.2119 11.3533 58.2919 11.0267 58.2919 10.64C58.2919 10.2667 58.2052 9.96 58.0319 9.72C57.8585 9.46667 57.6252 9.25333 57.3319 9.08C57.0385 8.89333 56.6919 8.73333 56.2919 8.6C55.8919 8.46667 55.4719 8.32667 55.0319 8.18C54.6052 8.04667 54.1785 7.88667 53.7519 7.7C53.3252 7.51333 52.9385 7.26667 52.5919 6.96C52.2585 6.65333 51.9852 6.28 51.7719 5.84C51.5585 5.38667 51.4519 4.82667 51.4519 4.16C51.4519 3.44 51.5985 2.82 51.8919 2.3C52.1985 1.78 52.5919 1.35333 53.0719 1.02C53.5652 0.673333 54.1185 0.419999 54.7319 0.259999C55.3585 0.0866663 55.9919 0 56.6319 0C57.3519 0 58.0785 0.126667 58.8119 0.38C59.1893 0.508055 59.5412 0.668475 59.8675 0.861261C60.3942 1.17241 60.4197 1.88453 60.0078 2.33671Z" fill="#647B64"/>
<path d="M62.6963 7.4C62.6963 6.26667 62.8829 5.24667 63.2562 4.34C63.6429 3.42 64.1696 2.64 64.8363 2C65.5163 1.36 66.3162 0.866666 67.2363 0.519999C68.1696 0.173333 69.1829 0 70.2763 0C71.3829 0 72.4029 0.173333 73.3363 0.519999C74.2696 0.866666 75.0763 1.36 75.7563 2C76.4363 2.64 76.9629 3.42 77.3363 4.34C77.7229 5.24667 77.9163 6.26667 77.9163 7.4C77.9163 8.50667 77.7229 9.52 77.3363 10.44C76.9629 11.3467 76.4363 12.1333 75.7563 12.8C75.0763 13.4533 74.2696 13.9667 73.3363 14.34C72.4029 14.7 71.3829 14.88 70.2763 14.88C69.1829 14.88 68.1696 14.7 67.2363 14.34C66.3162 13.9667 65.5163 13.4533 64.8363 12.8C64.1696 12.1333 63.6429 11.3467 63.2562 10.44C62.8829 9.52 62.6963 8.50667 62.6963 7.4ZM65.4362 7.4C65.4362 8.16 65.5496 8.86 65.7762 9.5C66.0163 10.1267 66.3496 10.6733 66.7762 11.14C67.2162 11.6067 67.7296 11.9733 68.3163 12.24C68.9163 12.4933 69.5763 12.62 70.2963 12.62C71.0163 12.62 71.6763 12.4933 72.2763 12.24C72.8763 11.9733 73.3896 11.6067 73.8163 11.14C74.2563 10.6733 74.5896 10.1267 74.8163 9.5C75.0563 8.86 75.1763 8.16 75.1763 7.4C75.1763 6.66667 75.0563 5.98667 74.8163 5.36C74.5896 4.73333 74.2629 4.18667 73.8363 3.72C73.4096 3.25333 72.8963 2.88667 72.2963 2.62C71.6963 2.35333 71.0296 2.22 70.2963 2.22C69.5629 2.22 68.8963 2.35333 68.2963 2.62C67.7096 2.88667 67.2029 3.25333 66.7762 3.72C66.3496 4.18667 66.0163 4.73333 65.7762 5.36C65.5496 5.98667 65.4362 6.66667 65.4362 7.4Z" fill="#647B64"/>
<path d="M80.3489 2.67901C80.3489 1.39826 81.3872 0.36 82.6679 0.36C83.6414 0.36 84.5113 0.968054 84.8458 1.88233L87.9586 10.3919C87.9648 10.4088 87.9809 10.42 87.9989 10.42C88.0169 10.42 88.033 10.4087 88.0391 10.3917L91.1134 1.89539C91.4468 0.973892 92.3218 0.36 93.3017 0.36C94.587 0.36 95.6289 1.40192 95.6289 2.6872V13.27C95.6289 13.9604 95.0693 14.52 94.3789 14.52C93.6886 14.52 93.1289 13.9604 93.1289 13.27V3.16365C93.1289 3.15059 93.1183 3.14 93.1053 3.14C93.0954 3.14 93.0866 3.14609 93.0831 3.15529L89.0992 13.6988C88.9125 14.193 88.4394 14.52 87.9111 14.52C87.3807 14.52 86.9061 14.1904 86.7209 13.6933L82.7946 3.15536C82.7912 3.14613 82.7824 3.14 82.7725 3.14C82.7595 3.14 82.7489 3.15057 82.7489 3.16361V13.32C82.7489 13.9827 82.2116 14.52 81.5489 14.52C80.8862 14.52 80.3489 13.9827 80.3489 13.32V2.67901Z" fill="#647B64"/>
<path d="M98.7473 3.36C98.7473 1.70315 100.09 0.36 101.747 0.36H107.027C107.635 0.36 108.127 0.852487 108.127 1.46C108.127 2.06751 107.635 2.56 107.027 2.56H103.067C102.073 2.56 101.267 3.36589 101.267 4.36C101.267 5.35411 102.073 6.16 103.067 6.16H106.707C107.293 6.16 107.767 6.63458 107.767 7.22C107.767 7.80542 107.293 8.28 106.707 8.28H103.267C102.163 8.28 101.267 9.17543 101.267 10.28C101.267 11.3846 102.163 12.28 103.267 12.28H107.367C107.986 12.28 108.487 12.7814 108.487 13.4C108.487 14.0186 107.986 14.52 107.367 14.52H101.747C100.09 14.52 98.7473 13.1769 98.7473 11.52V3.36Z" fill="#647B64"/>
<path d="M127.234 9.32C127.234 10.1733 127.088 10.9467 126.794 11.64C126.501 12.32 126.101 12.9 125.594 13.38C125.088 13.86 124.488 14.2333 123.794 14.5C123.101 14.7533 122.348 14.88 121.534 14.88C120.721 14.88 119.968 14.7533 119.274 14.5C118.581 14.2333 117.974 13.86 117.454 13.38C116.948 12.9 116.548 12.32 116.254 11.64C115.974 10.9467 115.834 10.1733 115.834 9.32V1.62C115.834 0.924121 116.398 0.36 117.094 0.36C117.79 0.36 118.354 0.924121 118.354 1.62V9.22C118.354 9.63333 118.408 10.0467 118.514 10.46C118.621 10.86 118.794 11.22 119.034 11.54C119.288 11.86 119.614 12.12 120.014 12.32C120.428 12.52 120.934 12.62 121.534 12.62C122.134 12.62 122.634 12.52 123.034 12.32C123.448 12.12 123.774 11.86 124.014 11.54C124.268 11.22 124.448 10.86 124.554 10.46C124.661 10.0467 124.714 9.63333 124.714 9.22V1.62C124.714 0.924124 125.279 0.36 125.974 0.36C126.67 0.36 127.234 0.924122 127.234 1.62V9.32Z" fill="#647B64"/>
<path d="M130.232 1.62C130.232 0.924122 130.796 0.36 131.492 0.36C132.188 0.36 132.752 0.924122 132.752 1.62V13.26C132.752 13.9559 132.188 14.52 131.492 14.52C130.796 14.52 130.232 13.9559 130.232 13.26V1.62Z" fill="#647B64"/>
</g>
<defs>
<filter id="filter0_d_1_202" x="0.670532" y="0" width="136.081" height="22.88" filterUnits="userSpaceOnUse" color-interpolation-filters="sRGB">
<feFlood flood-opacity="0" result="BackgroundImageFix"/>
<feColorMatrix in="SourceAlpha" type="matrix" values="0 0 0 0 0 0 0 0 0 0 0 0 0 0 0 0 0 0 127 0" result="hardAlpha"/>
<feOffset dy="4"/>
<feGaussianBlur stdDeviation="2"/>
<feComposite in2="hardAlpha" operator="out"/>
<feColorMatrix type="matrix" values="0 0 0 0 0 0 0 0 0 0 0 0 0 0 0 0 0 0 0.25 0"/>
<feBlend mode="normal" in2="BackgroundImageFix" result="effect1_dropShadow_1_202"/>
<feBlend mode="normal" in="SourceGraphic" in2="effect1_dropShadow_1_202" result="shape"/>
</filter>
</defs>
</svg>
